<svg width="124" height="125" viewBox="0 0 124 125" fill="none" xmlns="http://www.w3.org/2000/svg">
<path d="M119.626 9.90621C106.719 2.9166 98.5114 12.2699 96.0208 17.8203C90.6808 18.6434 83.8251 22.3606 99.1221 30.6446C114.419 38.9286 117.61 23.1432 117.293 14.215C117.459 10.4838 118.918 9.78779 119.626 9.90621Z" fill="#374046"/>
<path d="M94.7953 24.6732C97.7391 24.082 104.107 22.0124 106.029 18.4637C104.873 24.121 101.009 33.283 94.7953 24.6732Z" fill="#1C2932"/>
<circle cx="59.5" cy="65.5" r="59.5" fill="#374046"/>
<path fill-rule="evenodd" clip-rule="evenodd" d="M107.844 30.8067C110.206 34.092 112.241 37.6278 113.902 41.3667C99.129 44.499 64.0289 41.4265 77 40.5C86.8831 39.7941 100.348 34.3642 107.844 30.8067Z" fill="#1C2932"/>
<path d="M53.7776 34.6073C38.4999 31.6815 23.8333 31.3177 11 27C33.611 34.6073 15.8889 33.0859 11 34.6073C29.3333 38.1575 68.4442 37.4162 53.7776 34.6073Z" fill="#1C2932"/>
<path d="M18 58.5098C18 52.0984 23.9923 47.1555 30.3681 47.8304C37.4976 48.585 47.5312 49.2353 60 49C72.8927 48.7567 83.1817 48.0401 90.3489 47.3682C96.4802 46.7935 102 51.5839 102 57.7421V59.6864C102 64.9338 97.9389 69.2976 92.7013 69.6183C69.0789 71.0647 52.2508 71.0344 27.3446 69.5837C22.087 69.2775 18 64.9064 18 59.6399V58.5098Z" fill="#F3D8AF"/>
<path fill-rule="evenodd" clip-rule="evenodd" d="M65.3937 69H53.3596C56.4004 66.4499 60.9643 64.7716 65.3937 69Z" fill="#C4A87F"/>
<path d="M67 72C64.2772 75.7731 57.4653 81.0555 52 72C53.4851 73.6507 58.5644 75.9618 67 72Z" fill="#1C2932"/>
<path d="M5 84C27 88.1667 76.4 95.4 98 91C90.9683 93.3439 79.8053 97.9732 87.6687 98.8719C88.3002 98.9177 88.911 98.9604 89.5 99C88.8006 98.975 88.1925 98.9317 87.6687 98.8719C67.0356 97.3742 24.4061 92.5387 5 84Z" fill="#1C2932"/>
</svg>
